# Tiled2Unity generated file. Do not modify by hand.
# Wavefront file for 'overworld_mesh_0002.obj'

# Vertices (Count = 600)
v -24 -1 0
v -25 -1 0
v -25 0 0
v -24 0 0
v -23 -1 0
v -24 -1 0
v -24 0 0
v -23 0 0
v -22 -1 0
v -23 -1 0
v -23 0 0
v -22 0 0
v -21 -1 0
v -22 -1 0
v -22 0 0
v -21 0 0
v -20 -1 0
v -21 -1 0
v -21 0 0
v -20 0 0
v -19 -1 0
v -20 -1 0
v -20 0 0
v -19 0 0
v -18 -1 0
v -19 -1 0
v -19 0 0
v -18 0 0
v -17 -1 0
v -18 -1 0
v -18 0 0
v -17 0 0
v -16 -1 0
v -17 -1 0
v -17 0 0
v -16 0 0
v -15 -1 0
v -16 -1 0
v -16 0 0
v -15 0 0
v -12 -1 0
v -13 -1 0
v -13 0 0
v -12 0 0
v -11 -1 0
v -12 -1 0
v -12 0 0
v -11 0 0
v -10 -1 0
v -11 -1 0
v -11 0 0
v -10 0 0
v -9 -1 0
v -10 -1 0
v -10 0 0
v -9 0 0
v -8 -1 0
v -9 -1 0
v -9 0 0
v -8 0 0
v -7 -1 0
v -8 -1 0
v -8 0 0
v -7 0 0
v -6 -1 0
v -7 -1 0
v -7 0 0
v -6 0 0
v -5 -1 0
v -6 -1 0
v -6 0 0
v -5 0 0
v -4 -1 0
v -5 -1 0
v -5 0 0
v -4 0 0
v -3 -1 0
v -4 -1 0
v -4 0 0
v -3 0 0
v -2 -1 0
v -3 -1 0
v -3 0 0
v -2 0 0
v -1 -1 0
v -2 -1 0
v -2 0 0
v -1 0 0
v 0 -1 0
v -1 -1 0
v -1 0 0
v 0 0 0
v -24 -2 0
v -25 -2 0
v -25 -1 0
v -24 -1 0
v 0 -2 0
v -1 -2 0
v -1 -1 0
v 0 -1 0
v -24 -3 0
v -25 -3 0
v -25 -2 0
v -24 -2 0
v 0 -3 0
v -1 -3 0
v -1 -2 0
v 0 -2 0
v -24 -4 0
v -25 -4 0
v -25 -3 0
v -24 -3 0
v -18 -4 0
v -19 -4 0
v -19 -3 0
v -18 -3 0
v 0 -4 0
v -1 -4 0
v -1 -3 0
v 0 -3 0
v -24 -5 0
v -25 -5 0
v -25 -4 0
v -24 -4 0
v -8 -5 0
v -9 -5 0
v -9 -4 0
v -8 -4 0
v -7 -5 0
v -8 -5 0
v -8 -4 0
v -7 -4 0
v 0 -5 0
v -1 -5 0
v -1 -4 0
v 0 -4 0
v -24 -6 0
v -25 -6 0
v -25 -5 0
v -24 -5 0
v -8 -6 0
v -9 -6 0
v -9 -5 0
v -8 -5 0
v -7 -6 0
v -8 -6 0
v -8 -5 0
v -7 -5 0
v 0 -6 0
v -1 -6 0
v -1 -5 0
v 0 -5 0
v -24 -7 0
v -25 -7 0
v -25 -6 0
v -24 -6 0
v -19 -7 0
v -20 -7 0
v -20 -6 0
v -19 -6 0
v -18 -7 0
v -19 -7 0
v -19 -6 0
v -18 -6 0
v -6 -7 0
v -7 -7 0
v -7 -6 0
v -6 -6 0
v -5 -7 0
v -6 -7 0
v -6 -6 0
v -5 -6 0
v -4 -7 0
v -5 -7 0
v -5 -6 0
v -4 -6 0
v -3 -7 0
v -4 -7 0
v -4 -6 0
v -3 -6 0
v -2 -7 0
v -3 -7 0
v -3 -6 0
v -2 -6 0
v 0 -7 0
v -1 -7 0
v -1 -6 0
v 0 -6 0
v -24 -8 0
v -25 -8 0
v -25 -7 0
v -24 -7 0
v -19 -8 0
v -20 -8 0
v -20 -7 0
v -19 -7 0
v -18 -8 0
v -19 -8 0
v -19 -7 0
v -18 -7 0
v -6 -8 0
v -7 -8 0
v -7 -7 0
v -6 -7 0
v -5 -8 0
v -6 -8 0
v -6 -7 0
v -5 -7 0
v -4 -8 0
v -5 -8 0
v -5 -7 0
v -4 -7 0
v -3 -8 0
v -4 -8 0
v -4 -7 0
v -3 -7 0
v -2 -8 0
v -3 -8 0
v -3 -7 0
v -2 -7 0
v 0 -8 0
v -1 -8 0
v -1 -7 0
v 0 -7 0
v -24 -9 0
v -25 -9 0
v -25 -8 0
v -24 -8 0
v -8 -9 0
v -9 -9 0
v -9 -8 0
v -8 -8 0
v -7 -9 0
v -8 -9 0
v -8 -8 0
v -7 -8 0
v -6 -9 0
v -7 -9 0
v -7 -8 0
v -6 -8 0
v -5 -9 0
v -6 -9 0
v -6 -8 0
v -5 -8 0
v -4 -9 0
v -5 -9 0
v -5 -8 0
v -4 -8 0
v -3 -9 0
v -4 -9 0
v -4 -8 0
v -3 -8 0
v -2 -9 0
v -3 -9 0
v -3 -8 0
v -2 -8 0
v 0 -9 0
v -1 -9 0
v -1 -8 0
v 0 -8 0
v -24 -10 0
v -25 -10 0
v -25 -9 0
v -24 -9 0
v -8 -10 0
v -9 -10 0
v -9 -9 0
v -8 -9 0
v -7 -10 0
v -8 -10 0
v -8 -9 0
v -7 -9 0
v -6 -10 0
v -7 -10 0
v -7 -9 0
v -6 -9 0
v -5 -10 0
v -6 -10 0
v -6 -9 0
v -5 -9 0
v -4 -10 0
v -5 -10 0
v -5 -9 0
v -4 -9 0
v -3 -10 0
v -4 -10 0
v -4 -9 0
v -3 -9 0
v -2 -10 0
v -3 -10 0
v -3 -9 0
v -2 -9 0
v 0 -10 0
v -1 -10 0
v -1 -9 0
v 0 -9 0
v -24 -11 0
v -25 -11 0
v -25 -10 0
v -24 -10 0
v -8 -11 0
v -9 -11 0
v -9 -10 0
v -8 -10 0
v -7 -11 0
v -8 -11 0
v -8 -10 0
v -7 -10 0
v -6 -11 0
v -7 -11 0
v -7 -10 0
v -6 -10 0
v -5 -11 0
v -6 -11 0
v -6 -10 0
v -5 -10 0
v -4 -11 0
v -5 -11 0
v -5 -10 0
v -4 -10 0
v -3 -11 0
v -4 -11 0
v -4 -10 0
v -3 -10 0
v -2 -11 0
v -3 -11 0
v -3 -10 0
v -2 -10 0
v 0 -11 0
v -1 -11 0
v -1 -10 0
v 0 -10 0
v -24 -12 0
v -25 -12 0
v -25 -11 0
v -24 -11 0
v 0 -12 0
v -1 -12 0
v -1 -11 0
v 0 -11 0
v -24 -13 0
v -25 -13 0
v -25 -12 0
v -24 -12 0
v -19 -13 0
v -20 -13 0
v -20 -12 0
v -19 -12 0
v 0 -13 0
v -1 -13 0
v -1 -12 0
v 0 -12 0
v -24 -14 0
v -25 -14 0
v -25 -13 0
v -24 -13 0
v -10 -14 0
v -11 -14 0
v -11 -13 0
v -10 -13 0
v -9 -14 0
v -10 -14 0
v -10 -13 0
v -9 -13 0
v 0 -14 0
v -1 -14 0
v -1 -13 0
v 0 -13 0
v -24 -15 0
v -25 -15 0
v -25 -14 0
v -24 -14 0
v -10 -15 0
v -11 -15 0
v -11 -14 0
v -10 -14 0
v -9 -15 0
v -10 -15 0
v -10 -14 0
v -9 -14 0
v 0 -15 0
v -1 -15 0
v -1 -14 0
v 0 -14 0
v -24 -16 0
v -25 -16 0
v -25 -15 0
v -24 -15 0
v 0 -18 0
v -1 -18 0
v -1 -17 0
v 0 -17 0
v -24 -19 0
v -25 -19 0
v -25 -18 0
v -24 -18 0
v -3 -19 0
v -4 -19 0
v -4 -18 0
v -3 -18 0
v 0 -19 0
v -1 -19 0
v -1 -18 0
v 0 -18 0
v -24 -20 0
v -25 -20 0
v -25 -19 0
v -24 -19 0
v -13 -20 0
v -14 -20 0
v -14 -19 0
v -13 -19 0
v 0 -20 0
v -1 -20 0
v -1 -19 0
v 0 -19 0
v -24 -21 0
v -25 -21 0
v -25 -20 0
v -24 -20 0
v -22 -21 0
v -23 -21 0
v -23 -20 0
v -22 -20 0
v -21 -21 0
v -22 -21 0
v -22 -20 0
v -21 -20 0
v -5 -21 0
v -6 -21 0
v -6 -20 0
v -5 -20 0
v -4 -21 0
v -5 -21 0
v -5 -20 0
v -4 -20 0
v 0 -21 0
v -1 -21 0
v -1 -20 0
v 0 -20 0
v -24 -22 0
v -25 -22 0
v -25 -21 0
v -24 -21 0
v -22 -22 0
v -23 -22 0
v -23 -21 0
v -22 -21 0
v -21 -22 0
v -22 -22 0
v -22 -21 0
v -21 -21 0
v -18 -22 0
v -19 -22 0
v -19 -21 0
v -18 -21 0
v -13 -22 0
v -14 -22 0
v -14 -21 0
v -13 -21 0
v -12 -22 0
v -13 -22 0
v -13 -21 0
v -12 -21 0
v -5 -22 0
v -6 -22 0
v -6 -21 0
v -5 -21 0
v -4 -22 0
v -5 -22 0
v -5 -21 0
v -4 -21 0
v 0 -22 0
v -1 -22 0
v -1 -21 0
v 0 -21 0
v -24 -23 0
v -25 -23 0
v -25 -22 0
v -24 -22 0
v -13 -23 0
v -14 -23 0
v -14 -22 0
v -13 -22 0
v -12 -23 0
v -13 -23 0
v -13 -22 0
v -12 -22 0
v 0 -23 0
v -1 -23 0
v -1 -22 0
v 0 -22 0
v -24 -24 0
v -25 -24 0
v -25 -23 0
v -24 -23 0
v 0 -24 0
v -1 -24 0
v -1 -23 0
v 0 -23 0
v -24 -25 0
v -25 -25 0
v -25 -24 0
v -24 -24 0
v -23 -25 0
v -24 -25 0
v -24 -24 0
v -23 -24 0
v -22 -25 0
v -23 -25 0
v -23 -24 0
v -22 -24 0
v -21 -25 0
v -22 -25 0
v -22 -24 0
v -21 -24 0
v -20 -25 0
v -21 -25 0
v -21 -24 0
v -20 -24 0
v -19 -25 0
v -20 -25 0
v -20 -24 0
v -19 -24 0
v -18 -25 0
v -19 -25 0
v -19 -24 0
v -18 -24 0
v -17 -25 0
v -18 -25 0
v -18 -24 0
v -17 -24 0
v -16 -25 0
v -17 -25 0
v -17 -24 0
v -16 -24 0
v -15 -25 0
v -16 -25 0
v -16 -24 0
v -15 -24 0
v -14 -25 0
v -15 -25 0
v -15 -24 0
v -14 -24 0
v -13 -25 0
v -14 -25 0
v -14 -24 0
v -13 -24 0
v -12 -25 0
v -13 -25 0
v -13 -24 0
v -12 -24 0
v -11 -25 0
v -12 -25 0
v -12 -24 0
v -11 -24 0
v -10 -25 0
v -11 -25 0
v -11 -24 0
v -10 -24 0
v -9 -25 0
v -10 -25 0
v -10 -24 0
v -9 -24 0
v -8 -25 0
v -9 -25 0
v -9 -24 0
v -8 -24 0
v -7 -25 0
v -8 -25 0
v -8 -24 0
v -7 -24 0
v -6 -25 0
v -7 -25 0
v -7 -24 0
v -6 -24 0
v -5 -25 0
v -6 -25 0
v -6 -24 0
v -5 -24 0
v -4 -25 0
v -5 -25 0
v -5 -24 0
v -4 -24 0
v -3 -25 0
v -4 -25 0
v -4 -24 0
v -3 -24 0
v -2 -25 0
v -3 -25 0
v -3 -24 0
v -2 -24 0
v -1 -25 0
v -2 -25 0
v -2 -24 0
v -1 -24 0
v 0 -25 0
v -1 -25 0
v -1 -24 0
v 0 -24 0

# Texture cooridinates (Count = 88)
vt 0.175 0.5
vt 0.2 0.5
vt 0.2 0.5277778
vt 0.175 0.5277778
vt 0.125 0.4444444
vt 0.15 0.4444444
vt 0.15 0.4722222
vt 0.125 0.4722222
vt 0.125 0.5
vt 0.15 0.5
vt 0.15 0.5277778
vt 0.125 0.5277778
vt 0.2 0.5555556
vt 0.175 0.5555556
vt 0.175 0.4722222
vt 0.2 0.4722222
vt 0.05 0.5833334
vt 0.075 0.5833334
vt 0.075 0.6111111
vt 0.05 0.6111111
vt 0.55 0.4166667
vt 0.575 0.4166667
vt 0.575 0.4444444
vt 0.55 0.4444444
vt 0.525 0.4166667
vt 0.525 0.4444444
vt 0.55 0.3888889
vt 0.575 0.3888889
vt 0.525 0.3888889
vt 0.8 0.8888889
vt 0.825 0.8888889
vt 0.825 0.9166667
vt 0.8 0.9166667
vt 0.775 0.8888889
vt 0.775 0.9166667
vt 0.25 0.9722222
vt 0.275 0.9722222
vt 0.275 1
vt 0.25 1
vt 0.225 0.9722222
vt 0.225 1
vt 0.2 0.9722222
vt 0.2 1
vt 0.175 0.9722222
vt 0.175 1
vt 0.15 0.9722222
vt 0.15 1
vt 0.8 0.8611111
vt 0.825 0.8611111
vt 0.775 0.8611111
vt 0.25 0.9444444
vt 0.275 0.9444444
vt 0.225 0.9444444
vt 0.2 0.9444444
vt 0.175 0.9444444
vt 0.15 0.9444444
vt 0.35 0.8333333
vt 0.375 0.8333333
vt 0.375 0.8611111
vt 0.35 0.8611111
vt 0.325 0.8333333
vt 0.325 0.8611111
vt 0.25 0.9166667
vt 0.275 0.9166667
vt 0.225 0.9166667
vt 0.2 0.9166667
vt 0.175 0.9166667
vt 0.15 0.9166667
vt 0.35 0.8055556
vt 0.375 0.8055556
vt 0.325 0.8055556
vt 0.25 0.8888889
vt 0.275 0.8888889
vt 0.225 0.8888889
vt 0.2 0.8888889
vt 0.175 0.8888889
vt 0.15 0.8888889
vt 0.35 0.7777778
vt 0.375 0.7777778
vt 0.325 0.7777778
vt 0.25 0.8611111
vt 0.275 0.8611111
vt 0.225 0.8611111
vt 0.2 0.8611111
vt 0.175 0.8611111
vt 0.15 0.8611111
vt 0.15 0.5555556
vt 0.125 0.5555556

# Normal
vn 0 0 -1

# Mesh description
g overworld_mesh_0002

# Faces
f 1/1/1 2/2/1 3/3/1 4/4/1
f 5/5/1 6/6/1 7/7/1 8/8/1
f 9/5/1 10/6/1 11/7/1 12/8/1
f 13/5/1 14/6/1 15/7/1 16/8/1
f 17/5/1 18/6/1 19/7/1 20/8/1
f 21/5/1 22/6/1 23/7/1 24/8/1
f 25/5/1 26/6/1 27/7/1 28/8/1
f 29/5/1 30/6/1 31/7/1 32/8/1
f 33/5/1 34/6/1 35/7/1 36/8/1
f 37/9/1 38/10/1 39/11/1 40/12/1
f 41/10/1 42/1/1 43/4/1 44/11/1
f 45/5/1 46/6/1 47/7/1 48/8/1
f 49/5/1 50/6/1 51/7/1 52/8/1
f 53/5/1 54/6/1 55/7/1 56/8/1
f 57/5/1 58/6/1 59/7/1 60/8/1
f 61/5/1 62/6/1 63/7/1 64/8/1
f 65/5/1 66/6/1 67/7/1 68/8/1
f 69/5/1 70/6/1 71/7/1 72/8/1
f 73/5/1 74/6/1 75/7/1 76/8/1
f 77/5/1 78/6/1 79/7/1 80/8/1
f 81/5/1 82/6/1 83/7/1 84/8/1
f 85/5/1 86/6/1 87/7/1 88/8/1
f 89/4/1 90/3/1 91/13/1 92/14/1
f 93/7/1 94/15/1 95/1/1 96/10/1
f 97/15/1 98/16/1 99/2/1 100/1/1
f 101/7/1 102/15/1 103/1/1 104/10/1
f 105/15/1 106/16/1 107/2/1 108/1/1
f 109/7/1 110/15/1 111/1/1 112/10/1
f 113/17/1 114/18/1 115/19/1 116/20/1
f 117/15/1 118/16/1 119/2/1 120/1/1
f 121/7/1 122/15/1 123/1/1 124/10/1
f 125/21/1 126/22/1 127/23/1 128/24/1
f 129/25/1 130/21/1 131/24/1 132/26/1
f 133/15/1 134/16/1 135/2/1 136/1/1
f 137/7/1 138/15/1 139/1/1 140/10/1
f 141/27/1 142/28/1 143/22/1 144/21/1
f 145/29/1 146/27/1 147/21/1 148/25/1
f 149/15/1 150/16/1 151/2/1 152/1/1
f 153/7/1 154/15/1 155/1/1 156/10/1
f 157/30/1 158/31/1 159/32/1 160/33/1
f 161/34/1 162/30/1 163/33/1 164/35/1
f 165/36/1 166/37/1 167/38/1 168/39/1
f 169/40/1 170/36/1 171/39/1 172/41/1
f 173/42/1 174/40/1 175/41/1 176/43/1
f 177/44/1 178/42/1 179/43/1 180/45/1
f 181/46/1 182/44/1 183/45/1 184/47/1
f 185/15/1 186/16/1 187/2/1 188/1/1
f 189/7/1 190/15/1 191/1/1 192/10/1
f 193/48/1 194/49/1 195/31/1 196/30/1
f 197/50/1 198/48/1 199/30/1 200/34/1
f 201/51/1 202/52/1 203/37/1 204/36/1
f 205/53/1 206/51/1 207/36/1 208/40/1
f 209/54/1 210/53/1 211/40/1 212/42/1
f 213/55/1 214/54/1 215/42/1 216/44/1
f 217/56/1 218/55/1 219/44/1 220/46/1
f 221/15/1 222/16/1 223/2/1 224/1/1
f 225/7/1 226/15/1 227/1/1 228/10/1
f 229/57/1 230/58/1 231/59/1 232/60/1
f 233/61/1 234/57/1 235/60/1 236/62/1
f 237/63/1 238/64/1 239/52/1 240/51/1
f 241/65/1 242/63/1 243/51/1 244/53/1
f 245/66/1 246/65/1 247/53/1 248/54/1
f 249/67/1 250/66/1 251/54/1 252/55/1
f 253/68/1 254/67/1 255/55/1 256/56/1
f 257/15/1 258/16/1 259/2/1 260/1/1
f 261/7/1 262/15/1 263/1/1 264/10/1
f 265/69/1 266/70/1 267/58/1 268/57/1
f 269/71/1 270/69/1 271/57/1 272/61/1
f 273/72/1 274/73/1 275/64/1 276/63/1
f 277/74/1 278/72/1 279/63/1 280/65/1
f 281/75/1 282/74/1 283/65/1 284/66/1
f 285/76/1 286/75/1 287/66/1 288/67/1
f 289/77/1 290/76/1 291/67/1 292/68/1
f 293/15/1 294/16/1 295/2/1 296/1/1
f 297/7/1 298/15/1 299/1/1 300/10/1
f 301/78/1 302/79/1 303/70/1 304/69/1
f 305/80/1 306/78/1 307/69/1 308/71/1
f 309/81/1 310/82/1 311/73/1 312/72/1
f 313/83/1 314/81/1 315/72/1 316/74/1
f 317/84/1 318/83/1 319/74/1 320/75/1
f 321/85/1 322/84/1 323/75/1 324/76/1
f 325/86/1 326/85/1 327/76/1 328/77/1
f 329/15/1 330/16/1 331/2/1 332/1/1
f 333/7/1 334/15/1 335/1/1 336/10/1
f 337/15/1 338/16/1 339/2/1 340/1/1
f 341/7/1 342/15/1 343/1/1 344/10/1
f 345/17/1 346/18/1 347/19/1 348/20/1
f 349/15/1 350/16/1 351/2/1 352/1/1
f 353/7/1 354/15/1 355/1/1 356/10/1
f 357/11/1 358/4/1 359/14/1 360/87/1
f 361/12/1 362/11/1 363/87/1 364/88/1
f 365/15/1 366/16/1 367/2/1 368/1/1
f 369/7/1 370/15/1 371/1/1 372/10/1
f 373/10/1 374/1/1 375/4/1 376/11/1
f 377/9/1 378/10/1 379/11/1 380/12/1
f 381/10/1 382/1/1 383/4/1 384/11/1
f 385/9/1 386/10/1 387/11/1 388/12/1
f 389/11/1 390/4/1 391/14/1 392/87/1
f 393/12/1 394/11/1 395/87/1 396/88/1
f 397/17/1 398/18/1 399/19/1 400/20/1
f 401/15/1 402/16/1 403/2/1 404/1/1
f 405/7/1 406/15/1 407/1/1 408/10/1
f 409/17/1 410/18/1 411/19/1 412/20/1
f 413/15/1 414/16/1 415/2/1 416/1/1
f 417/7/1 418/15/1 419/1/1 420/10/1
f 421/30/1 422/31/1 423/32/1 424/33/1
f 425/34/1 426/30/1 427/33/1 428/35/1
f 429/30/1 430/31/1 431/32/1 432/33/1
f 433/34/1 434/30/1 435/33/1 436/35/1
f 437/15/1 438/16/1 439/2/1 440/1/1
f 441/7/1 442/15/1 443/1/1 444/10/1
f 445/48/1 446/49/1 447/31/1 448/30/1
f 449/50/1 450/48/1 451/30/1 452/34/1
f 453/17/1 454/18/1 455/19/1 456/20/1
f 457/30/1 458/31/1 459/32/1 460/33/1
f 461/34/1 462/30/1 463/33/1 464/35/1
f 465/48/1 466/49/1 467/31/1 468/30/1
f 469/50/1 470/48/1 471/30/1 472/34/1
f 473/15/1 474/16/1 475/2/1 476/1/1
f 477/7/1 478/15/1 479/1/1 480/10/1
f 481/48/1 482/49/1 483/31/1 484/30/1
f 485/50/1 486/48/1 487/30/1 488/34/1
f 489/15/1 490/16/1 491/2/1 492/1/1
f 493/7/1 494/15/1 495/1/1 496/10/1
f 497/15/1 498/16/1 499/2/1 500/1/1
f 501/4/1 502/3/1 503/13/1 504/14/1
f 505/8/1 506/7/1 507/10/1 508/9/1
f 509/8/1 510/7/1 511/10/1 512/9/1
f 513/8/1 514/7/1 515/10/1 516/9/1
f 517/8/1 518/7/1 519/10/1 520/9/1
f 521/8/1 522/7/1 523/10/1 524/9/1
f 525/8/1 526/7/1 527/10/1 528/9/1
f 529/8/1 530/7/1 531/10/1 532/9/1
f 533/8/1 534/7/1 535/10/1 536/9/1
f 537/8/1 538/7/1 539/10/1 540/9/1
f 541/8/1 542/7/1 543/10/1 544/9/1
f 545/8/1 546/7/1 547/10/1 548/9/1
f 549/8/1 550/7/1 551/10/1 552/9/1
f 553/8/1 554/7/1 555/10/1 556/9/1
f 557/8/1 558/7/1 559/10/1 560/9/1
f 561/8/1 562/7/1 563/10/1 564/9/1
f 565/8/1 566/7/1 567/10/1 568/9/1
f 569/8/1 570/7/1 571/10/1 572/9/1
f 573/8/1 574/7/1 575/10/1 576/9/1
f 577/8/1 578/7/1 579/10/1 580/9/1
f 581/8/1 582/7/1 583/10/1 584/9/1
f 585/8/1 586/7/1 587/10/1 588/9/1
f 589/8/1 590/7/1 591/10/1 592/9/1
f 593/8/1 594/7/1 595/10/1 596/9/1
f 597/1/1 598/2/1 599/3/1 600/4/1

