# Tiled2Unity generated file. Do not modify by hand.
# Wavefront file for 'Room1_mesh_0002.obj'

# Vertices (Count = 432)
v -24 -1 0
v -25 -1 0
v -25 0 0
v -24 0 0
v -23 -1 0
v -24 -1 0
v -24 0 0
v -23 0 0
v -22 -1 0
v -23 -1 0
v -23 0 0
v -22 0 0
v -21 -1 0
v -22 -1 0
v -22 0 0
v -21 0 0
v -20 -1 0
v -21 -1 0
v -21 0 0
v -20 0 0
v -19 -1 0
v -20 -1 0
v -20 0 0
v -19 0 0
v -18 -1 0
v -19 -1 0
v -19 0 0
v -18 0 0
v -17 -1 0
v -18 -1 0
v -18 0 0
v -17 0 0
v -16 -1 0
v -17 -1 0
v -17 0 0
v -16 0 0
v -15 -1 0
v -16 -1 0
v -16 0 0
v -15 0 0
v -14 -1 0
v -15 -1 0
v -15 0 0
v -14 0 0
v -13 -1 0
v -14 -1 0
v -14 0 0
v -13 0 0
v -12 -1 0
v -13 -1 0
v -13 0 0
v -12 0 0
v -11 -1 0
v -12 -1 0
v -12 0 0
v -11 0 0
v -10 -1 0
v -11 -1 0
v -11 0 0
v -10 0 0
v -9 -1 0
v -10 -1 0
v -10 0 0
v -9 0 0
v -8 -1 0
v -9 -1 0
v -9 0 0
v -8 0 0
v -7 -1 0
v -8 -1 0
v -8 0 0
v -7 0 0
v -6 -1 0
v -7 -1 0
v -7 0 0
v -6 0 0
v -5 -1 0
v -6 -1 0
v -6 0 0
v -5 0 0
v -4 -1 0
v -5 -1 0
v -5 0 0
v -4 0 0
v -3 -1 0
v -4 -1 0
v -4 0 0
v -3 0 0
v -2 -1 0
v -3 -1 0
v -3 0 0
v -2 0 0
v -1 -1 0
v -2 -1 0
v -2 0 0
v -1 0 0
v 0 -1 0
v -1 -1 0
v -1 0 0
v 0 0 0
v -24 -2 0
v -25 -2 0
v -25 -1 0
v -24 -1 0
v 0 -2 0
v -1 -2 0
v -1 -1 0
v 0 -1 0
v -24 -3 0
v -25 -3 0
v -25 -2 0
v -24 -2 0
v 0 -3 0
v -1 -3 0
v -1 -2 0
v 0 -2 0
v -24 -4 0
v -25 -4 0
v -25 -3 0
v -24 -3 0
v 0 -4 0
v -1 -4 0
v -1 -3 0
v 0 -3 0
v -24 -5 0
v -25 -5 0
v -25 -4 0
v -24 -4 0
v 0 -5 0
v -1 -5 0
v -1 -4 0
v 0 -4 0
v -24 -6 0
v -25 -6 0
v -25 -5 0
v -24 -5 0
v 0 -6 0
v -1 -6 0
v -1 -5 0
v 0 -5 0
v -24 -7 0
v -25 -7 0
v -25 -6 0
v -24 -6 0
v 0 -7 0
v -1 -7 0
v -1 -6 0
v 0 -6 0
v -24 -8 0
v -25 -8 0
v -25 -7 0
v -24 -7 0
v -13 -8 0
v -14 -8 0
v -14 -7 0
v -13 -7 0
v -12 -8 0
v -13 -8 0
v -13 -7 0
v -12 -7 0
v 0 -8 0
v -1 -8 0
v -1 -7 0
v 0 -7 0
v -24 -9 0
v -25 -9 0
v -25 -8 0
v -24 -8 0
v -13 -9 0
v -14 -9 0
v -14 -8 0
v -13 -8 0
v -12 -9 0
v -13 -9 0
v -13 -8 0
v -12 -8 0
v -7 -9 0
v -8 -9 0
v -8 -8 0
v -7 -8 0
v 0 -9 0
v -1 -9 0
v -1 -8 0
v 0 -8 0
v -24 -10 0
v -25 -10 0
v -25 -9 0
v -24 -9 0
v 0 -10 0
v -1 -10 0
v -1 -9 0
v 0 -9 0
v -24 -11 0
v -25 -11 0
v -25 -10 0
v -24 -10 0
v 0 -11 0
v -1 -11 0
v -1 -10 0
v 0 -10 0
v -24 -12 0
v -25 -12 0
v -25 -11 0
v -24 -11 0
v -9 -12 0
v -10 -12 0
v -10 -11 0
v -9 -11 0
v -8 -12 0
v -9 -12 0
v -9 -11 0
v -8 -11 0
v -7 -12 0
v -8 -12 0
v -8 -11 0
v -7 -11 0
v 0 -12 0
v -1 -12 0
v -1 -11 0
v 0 -11 0
v -24 -13 0
v -25 -13 0
v -25 -12 0
v -24 -12 0
v -17 -13 0
v -18 -13 0
v -18 -12 0
v -17 -12 0
v 0 -13 0
v -1 -13 0
v -1 -12 0
v 0 -12 0
v -24 -14 0
v -25 -14 0
v -25 -13 0
v -24 -13 0
v -13 -14 0
v -14 -14 0
v -14 -13 0
v -13 -13 0
v -12 -14 0
v -13 -14 0
v -13 -13 0
v -12 -13 0
v 0 -14 0
v -1 -14 0
v -1 -13 0
v 0 -13 0
v -24 -15 0
v -25 -15 0
v -25 -14 0
v -24 -14 0
v -13 -15 0
v -14 -15 0
v -14 -14 0
v -13 -14 0
v -12 -15 0
v -13 -15 0
v -13 -14 0
v -12 -14 0
v 0 -15 0
v -1 -15 0
v -1 -14 0
v 0 -14 0
v -24 -16 0
v -25 -16 0
v -25 -15 0
v -24 -15 0
v 0 -16 0
v -1 -16 0
v -1 -15 0
v 0 -15 0
v -24 -17 0
v -25 -17 0
v -25 -16 0
v -24 -16 0
v 0 -17 0
v -1 -17 0
v -1 -16 0
v 0 -16 0
v -24 -18 0
v -25 -18 0
v -25 -17 0
v -24 -17 0
v -10 -18 0
v -11 -18 0
v -11 -17 0
v -10 -17 0
v 0 -18 0
v -1 -18 0
v -1 -17 0
v 0 -17 0
v -24 -19 0
v -25 -19 0
v -25 -18 0
v -24 -18 0
v 0 -19 0
v -1 -19 0
v -1 -18 0
v 0 -18 0
v -24 -20 0
v -25 -20 0
v -25 -19 0
v -24 -19 0
v 0 -20 0
v -1 -20 0
v -1 -19 0
v 0 -19 0
v -24 -21 0
v -25 -21 0
v -25 -20 0
v -24 -20 0
v 0 -21 0
v -1 -21 0
v -1 -20 0
v 0 -20 0
v -24 -22 0
v -25 -22 0
v -25 -21 0
v -24 -21 0
v 0 -22 0
v -1 -22 0
v -1 -21 0
v 0 -21 0
v -24 -23 0
v -25 -23 0
v -25 -22 0
v -24 -22 0
v 0 -23 0
v -1 -23 0
v -1 -22 0
v 0 -22 0
v -24 -24 0
v -25 -24 0
v -25 -23 0
v -24 -23 0
v 0 -24 0
v -1 -24 0
v -1 -23 0
v 0 -23 0
v -24 -25 0
v -25 -25 0
v -25 -24 0
v -24 -24 0
v -23 -25 0
v -24 -25 0
v -24 -24 0
v -23 -24 0
v -22 -25 0
v -23 -25 0
v -23 -24 0
v -22 -24 0
v -21 -25 0
v -22 -25 0
v -22 -24 0
v -21 -24 0
v -20 -25 0
v -21 -25 0
v -21 -24 0
v -20 -24 0
v -19 -25 0
v -20 -25 0
v -20 -24 0
v -19 -24 0
v -18 -25 0
v -19 -25 0
v -19 -24 0
v -18 -24 0
v -17 -25 0
v -18 -25 0
v -18 -24 0
v -17 -24 0
v -16 -25 0
v -17 -25 0
v -17 -24 0
v -16 -24 0
v -15 -25 0
v -16 -25 0
v -16 -24 0
v -15 -24 0
v -12 -25 0
v -13 -25 0
v -13 -24 0
v -12 -24 0
v -11 -25 0
v -12 -25 0
v -12 -24 0
v -11 -24 0
v -10 -25 0
v -11 -25 0
v -11 -24 0
v -10 -24 0
v -9 -25 0
v -10 -25 0
v -10 -24 0
v -9 -24 0
v -8 -25 0
v -9 -25 0
v -9 -24 0
v -8 -24 0
v -7 -25 0
v -8 -25 0
v -8 -24 0
v -7 -24 0
v -6 -25 0
v -7 -25 0
v -7 -24 0
v -6 -24 0
v -5 -25 0
v -6 -25 0
v -6 -24 0
v -5 -24 0
v -4 -25 0
v -5 -25 0
v -5 -24 0
v -4 -24 0
v -3 -25 0
v -4 -25 0
v -4 -24 0
v -3 -24 0
v -2 -25 0
v -3 -25 0
v -3 -24 0
v -2 -24 0
v -1 -25 0
v -2 -25 0
v -2 -24 0
v -1 -24 0
v 0 -25 0
v -1 -25 0
v -1 -24 0
v 0 -24 0

# Texture cooridinates (Count = 44)
vt 0.175 0.5
vt 0.2 0.5
vt 0.2 0.5277778
vt 0.175 0.5277778
vt 0.125 0.4444444
vt 0.15 0.4444444
vt 0.15 0.4722222
vt 0.125 0.4722222
vt 0.2 0.5555556
vt 0.175 0.5555556
vt 0.175 0.4722222
vt 0.15 0.5
vt 0.2 0.4722222
vt 0.35 0.75
vt 0.375 0.75
vt 0.375 0.7777778
vt 0.35 0.7777778
vt 0.325 0.75
vt 0.325 0.7777778
vt 0.35 0.7222222
vt 0.375 0.7222222
vt 0.325 0.7222222
vt 0.35 0.6944444
vt 0.375 0.6944444
vt 0.125 0.8333333
vt 0.15 0.8333333
vt 0.15 0.8611111
vt 0.125 0.8611111
vt 0.1 0.8333333
vt 0.1 0.8611111
vt 0.075 0.8333333
vt 0.075 0.8611111
vt 0.3 0.7777778
vt 0.325 0.8055556
vt 0.3 0.8055556
vt 0.275 0.7777778
vt 0.275 0.8055556
vt 0.3 0.75
vt 0.275 0.75
vt 0.125 0.5
vt 0.125 0.5277778
vt 0.15 0.5277778
vt 0.15 0.5555556
vt 0.125 0.5555556

# Normal
vn 0 0 -1

# Mesh description
g Room1_mesh_0002

# Faces
f 1/1/1 2/2/1 3/3/1 4/4/1
f 5/5/1 6/6/1 7/7/1 8/8/1
f 9/5/1 10/6/1 11/7/1 12/8/1
f 13/5/1 14/6/1 15/7/1 16/8/1
f 17/5/1 18/6/1 19/7/1 20/8/1
f 21/5/1 22/6/1 23/7/1 24/8/1
f 25/5/1 26/6/1 27/7/1 28/8/1
f 29/5/1 30/6/1 31/7/1 32/8/1
f 33/5/1 34/6/1 35/7/1 36/8/1
f 37/5/1 38/6/1 39/7/1 40/8/1
f 41/5/1 42/6/1 43/7/1 44/8/1
f 45/5/1 46/6/1 47/7/1 48/8/1
f 49/5/1 50/6/1 51/7/1 52/8/1
f 53/5/1 54/6/1 55/7/1 56/8/1
f 57/5/1 58/6/1 59/7/1 60/8/1
f 61/5/1 62/6/1 63/7/1 64/8/1
f 65/5/1 66/6/1 67/7/1 68/8/1
f 69/5/1 70/6/1 71/7/1 72/8/1
f 73/5/1 74/6/1 75/7/1 76/8/1
f 77/5/1 78/6/1 79/7/1 80/8/1
f 81/5/1 82/6/1 83/7/1 84/8/1
f 85/5/1 86/6/1 87/7/1 88/8/1
f 89/5/1 90/6/1 91/7/1 92/8/1
f 93/5/1 94/6/1 95/7/1 96/8/1
f 97/4/1 98/3/1 99/9/1 100/10/1
f 101/7/1 102/11/1 103/1/1 104/12/1
f 105/11/1 106/13/1 107/2/1 108/1/1
f 109/7/1 110/11/1 111/1/1 112/12/1
f 113/11/1 114/13/1 115/2/1 116/1/1
f 117/7/1 118/11/1 119/1/1 120/12/1
f 121/11/1 122/13/1 123/2/1 124/1/1
f 125/7/1 126/11/1 127/1/1 128/12/1
f 129/11/1 130/13/1 131/2/1 132/1/1
f 133/7/1 134/11/1 135/1/1 136/12/1
f 137/11/1 138/13/1 139/2/1 140/1/1
f 141/7/1 142/11/1 143/1/1 144/12/1
f 145/11/1 146/13/1 147/2/1 148/1/1
f 149/7/1 150/11/1 151/1/1 152/12/1
f 153/14/1 154/15/1 155/16/1 156/17/1
f 157/18/1 158/14/1 159/17/1 160/19/1
f 161/11/1 162/13/1 163/2/1 164/1/1
f 165/7/1 166/11/1 167/1/1 168/12/1
f 169/20/1 170/21/1 171/15/1 172/14/1
f 173/22/1 174/20/1 175/14/1 176/18/1
f 177/23/1 178/24/1 179/21/1 180/20/1
f 181/11/1 182/13/1 183/2/1 184/1/1
f 185/7/1 186/11/1 187/1/1 188/12/1
f 189/11/1 190/13/1 191/2/1 192/1/1
f 193/7/1 194/11/1 195/1/1 196/12/1
f 197/11/1 198/13/1 199/2/1 200/1/1
f 201/7/1 202/11/1 203/1/1 204/12/1
f 205/25/1 206/26/1 207/27/1 208/28/1
f 209/29/1 210/25/1 211/28/1 212/30/1
f 213/31/1 214/29/1 215/30/1 216/32/1
f 217/11/1 218/13/1 219/2/1 220/1/1
f 221/7/1 222/11/1 223/1/1 224/12/1
f 225/23/1 226/24/1 227/21/1 228/20/1
f 229/11/1 230/13/1 231/2/1 232/1/1
f 233/7/1 234/11/1 235/1/1 236/12/1
f 237/33/1 238/19/1 239/34/1 240/35/1
f 241/36/1 242/33/1 243/35/1 244/37/1
f 245/11/1 246/13/1 247/2/1 248/1/1
f 249/7/1 250/11/1 251/1/1 252/12/1
f 253/38/1 254/18/1 255/19/1 256/33/1
f 257/39/1 258/38/1 259/33/1 260/36/1
f 261/11/1 262/13/1 263/2/1 264/1/1
f 265/7/1 266/11/1 267/1/1 268/12/1
f 269/11/1 270/13/1 271/2/1 272/1/1
f 273/7/1 274/11/1 275/1/1 276/12/1
f 277/11/1 278/13/1 279/2/1 280/1/1
f 281/7/1 282/11/1 283/1/1 284/12/1
f 285/23/1 286/24/1 287/21/1 288/20/1
f 289/11/1 290/13/1 291/2/1 292/1/1
f 293/7/1 294/11/1 295/1/1 296/12/1
f 297/11/1 298/13/1 299/2/1 300/1/1
f 301/7/1 302/11/1 303/1/1 304/12/1
f 305/11/1 306/13/1 307/2/1 308/1/1
f 309/7/1 310/11/1 311/1/1 312/12/1
f 313/11/1 314/13/1 315/2/1 316/1/1
f 317/7/1 318/11/1 319/1/1 320/12/1
f 321/11/1 322/13/1 323/2/1 324/1/1
f 325/7/1 326/11/1 327/1/1 328/12/1
f 329/11/1 330/13/1 331/2/1 332/1/1
f 333/7/1 334/11/1 335/1/1 336/12/1
f 337/11/1 338/13/1 339/2/1 340/1/1
f 341/4/1 342/3/1 343/9/1 344/10/1
f 345/8/1 346/7/1 347/12/1 348/40/1
f 349/8/1 350/7/1 351/12/1 352/40/1
f 353/8/1 354/7/1 355/12/1 356/40/1
f 357/8/1 358/7/1 359/12/1 360/40/1
f 361/8/1 362/7/1 363/12/1 364/40/1
f 365/8/1 366/7/1 367/12/1 368/40/1
f 369/8/1 370/7/1 371/12/1 372/40/1
f 373/8/1 374/7/1 375/12/1 376/40/1
f 377/41/1 378/42/1 379/43/1 380/44/1
f 381/42/1 382/4/1 383/10/1 384/43/1
f 385/8/1 386/7/1 387/12/1 388/40/1
f 389/8/1 390/7/1 391/12/1 392/40/1
f 393/8/1 394/7/1 395/12/1 396/40/1
f 397/8/1 398/7/1 399/12/1 400/40/1
f 401/8/1 402/7/1 403/12/1 404/40/1
f 405/8/1 406/7/1 407/12/1 408/40/1
f 409/8/1 410/7/1 411/12/1 412/40/1
f 413/8/1 414/7/1 415/12/1 416/40/1
f 417/8/1 418/7/1 419/12/1 420/40/1
f 421/8/1 422/7/1 423/12/1 424/40/1
f 425/8/1 426/7/1 427/12/1 428/40/1
f 429/1/1 430/2/1 431/3/1 432/4/1

